<svg xmlns="http://www.w3.org/2000/svg" version="1.1" xmlns:xlink="http://www.w3.org/1999/xlink" xmlns:svgjs="http://svgjs.com/svgjs" width="1451" height="913" preserveAspectRatio="none" viewBox="0 0 1451 913"><g mask="url(&quot;#SvgjsMask1969&quot;)" fill="none"><rect width="1451" height="913" x="0" y="0" fill="url(#SvgjsLinearGradient1970)"></rect><path d="M735.29-157.76C615.17-71.74 755.42 292.72 474.22 372.42 193.01 452.12 106.88 695.93-47.93 710.23" stroke="rgba(254, 206, 168, 1)" stroke-width="2"></path><path d="M965.8-168.03C834.63-114.11 960.2 231.72 632.96 291.32 305.71 350.92 163.3 694.24-32.73 711.3" stroke="rgba(254, 206, 168, 1)" stroke-width="2"></path><path d="M1402.17-61.21C1198.66 52.81 1219.13 707.34 928.19 742.52 637.24 777.7 691.2 628.39 454.2 628.39 217.21 628.4 102.1 741.72-19.78 742.52" stroke="rgba(254, 206, 168, 1)" stroke-width="2"></path><path d="M602.42-29.77C465.09 148.05 564.63 817.72 344.82 831.24 125.01 844.76-3.67 421.27-170.38 393" stroke="rgba(254, 206, 168, 1)" stroke-width="2"></path><path d="M1065.21-85.64C858.42-25.05 784.11 558.76 493.72 559.59 203.32 560.42 100.63 145.59-77.78 121.35" stroke="rgba(254, 206, 168, 1)" stroke-width="2"></path></g><defs><mask id="SvgjsMask1969"><rect width="1451" height="913" fill="#ffffff"></rect></mask><linearGradient x1="9.27%" y1="-14.73%" x2="90.73%" y2="114.73%" gradientUnits="userSpaceOnUse" id="SvgjsLinearGradient1970"><stop stop-color="rgba(211, 232, 74, 1)" offset="0"></stop><stop stop-color="rgba(59, 56, 56, 1)" offset="1"></stop></linearGradient></defs></svg>