<svg xmlns="http://www.w3.org/2000/svg" version="1.1" xmlns:xlink="http://www.w3.org/1999/xlink" xmlns:svgjs="http://svgjs.com/svgjs" width="1451" height="913" preserveAspectRatio="none" viewBox="0 0 1451 913"><g mask="url(&quot;#SvgjsMask2033&quot;)" fill="none"><rect width="1451" height="913" x="0" y="0" fill="url(#SvgjsLinearGradient2034)"></rect><path d="M1130.92-101.25C939.52-81.63 874.83 292.06 493.48 329.98 112.13 367.9 46 731.65-143.96 749.96" stroke="rgba(254, 206, 168, 1)" stroke-width="2"></path><path d="M997.12-158.09C748.49-55.1 718.73 698.05 367.5 715.05 16.28 732.05-93.13 472.88-262.11 468.54" stroke="rgba(254, 206, 168, 1)" stroke-width="2"></path><path d="M1171.73-19.47C970.44 99.36 996.9 755.59 709.78 793.45 422.67 831.31 478.81 679.32 247.84 679.33 16.86 679.33-95.15 792.61-214.11 793.45" stroke="rgba(254, 206, 168, 1)" stroke-width="2"></path><path d="M656.26-9.78C516.18 100.21 608.2 625.56 359.43 637.85 110.66 650.14-77.57 439.69-234.23 436.99" stroke="rgba(254, 206, 168, 1)" stroke-width="2"></path><path d="M1003.13-103.53C811.54 39.37 864.53 706.25 591.4 759.33 318.27 812.41 385.54 645.2 179.68 645.21-26.19 645.21-125.24 758.28-232.05 759.33" stroke="rgba(254, 206, 168, 1)" stroke-width="2"></path></g><defs><mask id="SvgjsMask2033"><rect width="1451" height="913" fill="#ffffff"></rect></mask><linearGradient x1="9.27%" y1="-14.73%" x2="90.73%" y2="114.73%" gradientUnits="userSpaceOnUse" id="SvgjsLinearGradient2034"><stop stop-color="rgba(213, 227, 213, 1)" offset="0"></stop><stop stop-color="rgba(38, 38, 38, 1)" offset="1"></stop></linearGradient></defs></svg>